HIERARCHY
ROOT joint_0
{
	OFFSET 0.000000 0.000000 0.000000
	CHANNELS 6 Xposition Yposition Zposition Zrotation Yrotation Xrotation 
	JOINT joint_1
	{
		OFFSET 1.363060 -1.794630 0.839290
		CHANNELS 3 Zrotation Yrotation Xrotation
		JOINT joint_2
		{
			OFFSET 2.448110 -6.726130 0.000000
			CHANNELS 3 Zrotation Yrotation Xrotation
			JOINT joint_3
			{
				OFFSET 2.562200 -7.039590 0.000000
				CHANNELS 3 Zrotation Yrotation Xrotation
				JOINT joint_4
				{
					OFFSET 0.157640 -0.433110 2.322550
					CHANNELS 3 Zrotation Yrotation Xrotation
					End Site
					{
						OFFSET 0.000000 0.000000 0.000000
					}
				}
			}
		}
	}
	JOINT joint_5
	{
		OFFSET -1.305520 -1.794630 0.839290
		CHANNELS 3 Zrotation Yrotation Xrotation
		JOINT joint_6
		{
			OFFSET -2.542530 -6.985550 0.000000
			CHANNELS 3 Zrotation Yrotation Xrotation
			JOINT joint_7
			{
				OFFSET -2.568260 -7.056230 0.000000
				CHANNELS 3 Zrotation Yrotation Xrotation
				JOINT joint_8
				{
					OFFSET -0.164730 -0.452590 2.363150
					CHANNELS 3 Zrotation Yrotation Xrotation
					End Site
					{
						OFFSET 0.000000 0.000000 0.000000
					}
				}
			}
		}
	}
	JOINT joint_9
	{
		OFFSET 0.028270 2.035590 -0.193380
		CHANNELS 3 Zrotation Yrotation Xrotation
		JOINT joint_10
		{
			OFFSET 0.056720 2.048850 -0.042750
			CHANNELS 3 Zrotation Yrotation Xrotation
			JOINT joint_11
			{
				OFFSET -0.054170 1.746240 0.172020
				CHANNELS 3 Zrotation Yrotation Xrotation
				JOINT joint_12
				{
					OFFSET 0.104070 1.761360 -0.123970
					CHANNELS 3 Zrotation Yrotation Xrotation
					End Site
					{
						OFFSET 0.000000 0.000000 0.000000
					}
				}
			}
			JOINT joint_13
			{
				OFFSET 3.362410 1.200890 -0.311210
				CHANNELS 3 Zrotation Yrotation Xrotation
				JOINT joint_14
				{
					OFFSET 4.983000 -0.000000 -0.000000
					CHANNELS 3 Zrotation Yrotation Xrotation
					JOINT joint_15
					{
						OFFSET 3.483560 -0.000000 -0.000000
						CHANNELS 3 Zrotation Yrotation Xrotation
						JOINT joint_16
						{
							OFFSET 0.715260 -0.000000 -0.000000
							CHANNELS 3 Zrotation Yrotation Xrotation
							End Site
							{
								OFFSET 0.000000 0.000000 0.000000
							}
						}
					}
				}
			}
			JOINT joint_17
			{
				OFFSET -3.136600 1.374050 -0.404650
				CHANNELS 3 Zrotation Yrotation Xrotation
				JOINT joint_18
				{
					OFFSET -5.241900 -0.000000 -0.000000
					CHANNELS 3 Zrotation Yrotation Xrotation
					JOINT joint_19
					{
						OFFSET -3.444170 -0.000000 -0.000000
						CHANNELS 3 Zrotation Yrotation Xrotation
						JOINT joint_20
						{
							OFFSET -0.622530 -0.000000 -0.000000
							CHANNELS 3 Zrotation Yrotation Xrotation
							End Site
							{
								OFFSET 0.000000 0.000000 0.000000
							}
						}
					}
				}
			}
		}
	}
}
MOTION
Frames: 7
Frame Time: 0.031667
0.097733 12.882330 0.339344 5.371024 6.314359 16.174130 -9.751873 -17.432637 -76.206993 13.734423 25.852501 75.602947 0.610904 -7.923822 -4.262217 0.031100 -1.139100 -3.131600 -3.434386 -18.370614 -31.627768 -20.858528 -19.938214 90.734286 -4.059391 10.675889 -26.499990 -4.557700 12.867700 -38.875100 0.958878 2.864804 -3.884291 0.563094 1.277528 -6.505224 8.994329 -9.648088 3.719579 -0.290000 -4.275200 5.480200 -75.871104 -63.206646 66.134317 143.236771 -28.358356 -107.735168 4.168904 -1.073472 -8.657423 -7.125000 0.000000 0.000000 0.574857 44.450547 -50.590940 -41.218791 45.486093 -13.352742 0.597115 -3.113992 -15.011445 7.125000 0.000000 0.000000 
0.079993 12.941209 0.343915 5.025169 5.824940 16.393716 -8.940730 -17.481566 -76.069092 13.607148 25.816931 75.206069 0.582182 -7.107037 -4.461761 0.036900 -1.240500 -3.410700 -2.750246 -17.972536 -32.014626 -20.634515 -19.991569 90.202314 -4.034357 10.670529 -26.236776 -4.469700 12.760500 -38.478500 1.056229 2.514564 -3.881809 0.656321 1.204961 -6.753734 8.910559 -8.812262 3.788434 -0.482800 -3.852600 5.465700 -75.985108 -63.167480 66.171840 143.460408 -28.150898 -107.861337 4.196440 -1.024133 -9.160159 -7.125000 0.000000 0.000000 7.530860 43.373621 -42.891916 -56.067196 52.706459 -23.413952 0.957813 -2.715942 -22.862989 7.125000 0.000000 0.000000 
0.080211 13.011298 0.348268 4.581349 4.888886 16.634007 -7.983922 -17.458872 -75.811829 13.496951 25.771827 74.830178 0.545036 -5.967948 -4.936720 0.048900 -1.427500 -3.925800 -2.065930 -17.336790 -32.528615 -20.334740 -20.073278 89.449664 -4.018768 10.772352 -25.918141 -4.399800 12.674300 -38.161000 1.168906 2.068177 -3.861081 0.940402 1.044049 -6.652033 8.777472 -7.732083 3.813905 -0.692200 -3.330200 5.432900 -75.962649 -63.624822 65.931045 143.623401 -27.889737 -107.972937 4.228681 -0.949432 -9.806478 -7.125000 0.000000 0.000000 14.058352 42.844386 -34.054351 -78.711564 55.219462 -41.204582 1.206116 -2.304584 -33.212950 7.125000 0.000000 0.000000 
0.094685 13.091400 0.354036 4.037172 3.523990 16.941363 -6.922491 -17.279360 -75.465554 13.397388 25.707682 74.459125 0.495780 -4.629188 -5.608880 0.065800 -1.654500 -4.551800 -1.319770 -16.451241 -33.153471 -19.950130 -20.179571 88.471600 -4.018418 10.835790 -25.695880 -4.353900 12.617000 -37.951200 1.274212 1.610599 -3.843170 1.248636 0.839892 -6.261463 8.650739 -6.563424 3.788285 -0.891500 -2.777400 5.355100 -75.782185 -64.581897 65.617151 143.689913 -27.605618 -108.041865 4.266626 -0.858581 -10.549762 -7.125000 0.000000 0.000000 20.429270 42.708460 -24.835853 -100.867878 51.153718 -63.946849 0.856651 -2.130180 -42.102831 7.125000 0.000000 0.000000 
0.119173 13.177814 0.361219 3.442140 1.843363 17.388457 -5.814312 -16.931031 -75.123299 13.303180 25.622300 74.085750 0.432608 -3.225900 -6.354410 0.084900 -1.879500 -5.172800 -0.508513 -15.402517 -33.917004 -19.493276 -20.309727 87.307895 -4.030306 10.760054 -25.645792 -4.331700 12.589200 -37.849700 1.362888 1.182514 -3.842269 1.532616 0.671396 -6.080553 8.511815 -5.401731 3.770389 -1.100600 -2.226000 5.277200 -75.524737 -65.682492 65.323216 143.689734 -27.311373 -108.092187 4.295388 -0.799969 -11.327098 -7.125000 0.000000 0.000000 27.856329 41.938711 -18.428561 -117.939819 47.203763 -83.235750 0.171195 -2.125114 -47.777745 7.125000 0.000000 0.000000 
0.152041 13.264990 0.367314 2.857033 -0.047148 18.025311 -4.752427 -16.440009 -74.909607 13.219456 25.523590 73.735554 0.353496 -1.832773 -7.052289 0.105500 -2.094000 -5.765500 0.294318 -14.326727 -34.869118 -18.991310 -20.457573 86.019618 -4.043286 10.550890 -25.719591 -4.333900 12.592000 -37.859600 1.449423 0.706002 -3.863245 1.913166 0.449082 -5.848748 8.395449 -4.283211 3.786731 -1.311000 -1.689200 5.247800 -75.318992 -66.859338 65.128901 143.704545 -26.999366 -108.169446 4.305836 -0.785483 -11.932467 -7.125000 0.000000 0.000000 35.221795 41.027534 -12.723367 -130.346508 42.443456 -95.822876 -0.297156 -2.010982 -50.032320 7.125000 0.000000 0.000000 
0.192636 13.352601 0.375259 2.289350 -2.052988 18.742077 -3.813146 -15.832602 -74.737445 13.159250 25.417071 73.447896 0.259923 -0.469927 -7.685701 0.122800 -2.259300 -6.222700 1.046554 -13.276165 -35.868227 -18.444895 -20.603041 84.608656 -4.047731 10.268530 -25.826496 -4.351100 12.613500 -37.938300 1.530053 0.248757 -3.892636 2.349425 0.212122 -5.530773 8.300774 -3.236310 3.789138 -1.491300 -1.190000 5.240800 -75.360463 -68.270239 65.253026 143.768590 -26.713384 -108.253345 4.328500 -0.778700 -12.037713 -7.125000 0.000000 0.000000 41.883594 39.888627 -7.080497 -138.835587 37.283728 -103.475864 -0.600230 -1.807918 -49.489768 7.125000 0.000000 0.000000 
